<?xml version="1.0" standalone="no"?><!DOCTYPE svg PUBLIC "-//W3C//DTD SVG 1.1//EN" "http://www.w3.org/Graphics/SVG/1.1/DTD/svg11.dtd"><svg t="1695272307834" class="icon" viewBox="0 0 1024 1024" version="1.1" xmlns="http://www.w3.org/2000/svg" p-id="4923" xmlns:xlink="http://www.w3.org/1999/xlink" width="32" height="32"><path d="M720.527872 189.008457c-22.662095 43.505371-48.720457 91.516343-79.2576 146.017524 22.603581 38.736457 45.538743 77.636267 67.7888 115.370667 7.341105 12.451352 14.657829 24.858819 21.940419 37.2224h177.593295c20.489752-32.872838 37.690514-60.754895 53.248-86.308572-18.488076-75.112838-55.332571-143.077181-105.508571-198.836419a2855.15581 2855.15581 0 0 0-135.804343-13.4656zM314.965358 573.639924c-7.355733-12.478171-14.657829-24.87101-21.955048-37.258972H115.412139c-20.523886 32.928914-37.727086 60.810971-53.250438 86.31101 18.485638 75.1104 55.327695 143.072305 105.498819 198.831543a2852.583619 2852.583619 0 0 0 135.811657 13.468038c22.662095-43.505371 48.720457-91.516343 79.250285-146.005333-22.596267-38.729143-45.511924-77.616762-67.757104-115.346286zM115.412139 487.619048h177.590857c7.287467-12.375771 14.613943-24.797867 21.959924-37.258972 22.242743-37.724648 45.17059-76.609829 67.766857-115.334095-30.524952-54.481676-56.58819-102.497524-79.2576-146.017524a2855.063162 2855.063162 0 0 0-135.809219 13.468038c-50.171124 55.759238-87.013181 123.721143-105.501257 198.833981 15.555048 25.5488 32.758248 53.430857 53.250438 86.308572zM678.395148 859.657752c-22.606019-43.4688-48.6912-91.55779-79.362438-146.307657a6164.431238 6164.431238 0 0 1-174.062933 0c-30.659048 54.730362-56.746667 102.826667-79.362438 146.307657 21.430857 36.096 41.130667 70.058667 59.860114 103.192381a462.840686 462.840686 0 0 0 106.520381 12.380648c36.6592 0 72.328533-4.3008 106.549638-12.385524a5561.319619 5561.319619 0 0 1 59.857676-103.187505zM908.58791 536.380952H730.989739c-7.289905 12.375771-14.582248 24.756419-21.933105 37.2224-22.252495 37.741714-45.175467 76.639086-67.781486 115.382858 30.539581 54.506057 56.597943 102.517029 79.250286 146.007771a2858.396038 2858.396038 0 0 0 135.804343-13.468038c50.176-55.759238 87.018057-123.721143 105.506133-198.833981-15.547733-25.543924-32.750933-53.425981-53.248-86.31101zM405.465015 61.149867c-18.729448 33.136152-38.429257 67.098819-59.860114 103.192381 22.627962 43.505371 48.722895 91.616305 79.386819 146.351542 57.824305-0.8192 116.189867-0.8192 174.014171 0 30.671238-54.752305 56.76861-102.8608 79.386819-146.351542-21.430857-36.096-41.130667-70.056229-59.857676-103.187505a462.828495 462.828495 0 0 0-106.549638-12.385524 462.840686 462.840686 0 0 0-106.520381 12.380648z" fill="#FFFFFF" p-id="4924"></path><path d="M424.916139 359.460571c-22.676724 38.865676-45.648457 77.845943-67.947277 115.665677-7.280152 12.348952-14.506667 24.612571-21.728304 36.873752 7.221638 12.263619 14.445714 24.527238 21.728304 36.873752 22.298819 37.819733 45.270552 76.8 67.947277 115.665677 57.873067 0.826514 116.297143 0.826514 174.165333 0 22.686476-38.877867 45.665524-77.870324 67.969219-115.702248 7.272838-12.336762 14.4896-24.58819 21.703924-36.837181-7.214324-12.24899-14.431086-24.500419-21.703924-36.837181-22.306133-37.831924-45.285181-76.824381-67.969219-115.702248a6117.076114 6117.076114 0 0 0-174.165333 0zM336.635148 83.273143A463.489219 463.489219 0 0 0 227.449929 146.717257a2873.158705 2873.158705 0 0 1 75.839391-6.602362 5951.614781 5951.614781 0 0 0 33.345828-56.841752zM973.76551 475.087238a12189.852038 12189.852038 0 0 1-22.915657 36.912762 12501.525943 12501.525943 0 0 1 22.915657 36.912762c0.965486-12.178286 1.470171-24.483352 1.470172-36.905448a466.041905 466.041905 0 0 0-1.470172-36.920076zM687.369777 940.719543a463.433143 463.433143 0 0 0 109.173028-63.4368 2869.857524 2869.857524 0 0 1-75.832076 6.599924 6035.846095 6035.846095 0 0 0-33.340952 56.836876zM720.710729 140.114895c25.134324 1.850514 50.461257 4.05699 75.8272 6.602362a463.479467 463.479467 0 0 0-109.168152-63.434362 6032.798476 6032.798476 0 0 0 33.340952 56.832zM50.232101 548.9152a12564.74819 12564.74819 0 0 1 22.918095-36.9152 12501.525943 12501.525943 0 0 1-22.915657-36.912762A467.18781 467.18781 0 0 0 48.761929 512.004876c0 12.424533 0.507124 24.7296 1.470172 36.910324zM303.28932 883.887543c-25.136762-1.850514-50.468571-4.059429-75.841829-6.6048a463.445333 463.445333 0 0 0 109.190095 63.446552 6004.853029 6004.853029 0 0 0-33.348266-56.841752z" fill="#6ECCAE" p-id="4925"></path><path d="M1011.911948 401.310476a25.234286 25.234286 0 0 0-0.490057-2.245486c-20.080152-88.839314-63.324648-168.984381-123.028724-233.75238a24.471162 24.471162 0 0 0-4.4032-4.729905c-64.707048-68.4544-148.043581-119.113143-241.815162-143.781791a23.956724 23.956724 0 0 0-2.906209-0.772876c-40.708876-10.452114-83.356038-16.018286-127.280762-16.018286-43.86621 0-86.457295 5.553981-127.11741 15.979277a24.624762 24.624762 0 0 0-3.062247 0.811885c-93.769143 24.671086-177.103238 75.329829-241.807848 143.786667a24.432152 24.432152 0 0 0-4.400762 4.725029C75.897929 230.08061 32.653434 310.228114 12.57572 399.072305c-0.195048 0.72899-0.355962 1.465295-0.482743 2.208914A511.892724 511.892724 0 0 0 0.000024 512.004876c0 38.012343 4.1984 75.054324 12.095391 110.726095 0.126781 0.738743 0.285257 1.47261 0.480305 2.196724 20.077714 88.846629 63.32221 168.996571 123.028723 233.76701 1.248305 1.755429 2.720914 3.342629 4.39101 4.717714 64.797257 68.5568 148.2752 119.266743 242.210133 143.898819 0.611962 0.190171 1.2288 0.360838 1.855391 0.502248 40.903924 10.55939 83.770514 16.181638 127.926857 16.181638 44.168533 0 87.047314-5.622248 127.96099-16.188953a24.259048 24.259048 0 0 0 1.845638-0.499809c93.932495-24.634514 177.408-75.339581 242.205258-143.891505a24.488229 24.488229 0 0 0 4.391009-4.717714c59.708952-64.770438 102.955886-144.920381 123.036038-233.76701 0.195048-0.731429 0.355962-1.467733 0.482743-2.21379a511.763505 511.763505 0 0 0 12.092952-110.711467 511.926857 511.926857 0 0 0-12.090514-110.6944zM687.369777 940.719543a5923.181714 5923.181714 0 0 1 33.340952-56.834438 2870.759619 2870.759619 0 0 0 75.832076-6.599924 463.511162 463.511162 0 0 1-109.173028 63.434362z m33.158095-105.725562c-22.654781-43.490743-48.710705-91.501714-79.250286-146.007771 22.608457-38.741333 45.52899-77.641143 67.781486-115.382858 7.350857-12.465981 14.6432-24.846629 21.933105-37.2224h177.598171c20.497067 32.885029 37.697829 60.767086 53.250438 86.31101-18.488076 75.112838-55.332571 143.074743-105.506133 198.833981a2858.812952 2858.812952 0 0 1-135.806781 13.468038z m-417.238552 48.893562a5900.585448 5900.585448 0 0 1 33.345828 56.841752 463.494095 463.494095 0 0 1-109.190095-63.446552 2877.193752 2877.193752 0 0 0 75.844267 6.6048z m0.185295-48.896a2852.269105 2852.269105 0 0 1-135.811657-13.468038c-50.171124-55.7568-87.013181-123.718705-105.498819-198.831543C77.689929 597.191924 94.890691 569.309867 115.414577 536.380952h177.598171c7.297219 12.387962 14.599314 24.783238 21.955048 37.258972 22.245181 37.729524 45.160838 76.614705 67.759543 115.343847-30.532267 54.491429-56.590629 102.5024-79.252724 146.007772z m33.160533-751.7184a5951.614781 5951.614781 0 0 1-33.345828 56.841752c-25.1392 1.850514-50.468571 4.05699-75.839391 6.602362a463.489219 463.489219 0 0 1 109.185219-63.444114z m-33.162971 105.735314c22.66941 43.52 48.732648 91.535848 79.2576 146.017524-22.596267 38.724267-45.524114 77.60701-67.766857 115.334095A67903.609905 67903.609905 0 0 0 293.002996 487.619048h-177.590857c-20.49219-32.877714-37.69539-60.759771-53.250438-86.308572 18.488076-75.112838 55.330133-143.074743 105.501257-198.833981a2855.377676 2855.377676 0 0 1 135.809219-13.468038zM688.759491 512c-7.214324 12.24899-14.431086 24.502857-21.703924 36.837181-22.306133 37.829486-45.285181 76.824381-67.969219 115.702248-57.870629 0.826514-116.292267 0.826514-174.165333 0-22.676724-38.863238-45.648457-77.845943-67.947276-115.665677-7.280152-12.348952-14.506667-24.612571-21.728305-36.873752 7.221638-12.263619 14.445714-24.527238 21.728305-36.873752 22.298819-37.819733 45.270552-76.8 67.947276-115.665677 57.870629-0.826514 116.294705-0.826514 174.165333 0 22.686476 38.877867 45.665524 77.870324 67.969219 115.702248L688.759491 512z m-615.609295 0a12564.74819 12564.74819 0 0 0-22.918095 36.9152A468.126476 468.126476 0 0 1 48.761929 512.004876c0-12.426971 0.507124-24.734476 1.47261-36.917638 7.194819 11.637029 14.794362 23.878705 22.915657 36.912762z m877.702095 0a11893.340648 11893.340648 0 0 0 22.915657-36.912762 467.139048 467.139048 0 0 1 1.47261 36.917638c0 12.422095-0.507124 24.727162-1.470172 36.905448a13432.402895 13432.402895 0 0 0-22.918095-36.910324z m-42.261943-24.380952h-177.593295c-7.280152-12.363581-14.599314-24.773486-21.940419-37.2224-22.247619-37.7344-45.185219-76.63421-67.7888-115.370667 30.537143-54.498743 56.595505-102.512152 79.2576-146.017524a2854.741333 2854.741333 0 0 1 135.801905 13.4656c50.176 55.759238 87.020495 123.723581 105.508571 198.836419-15.557486 25.553676-32.758248 53.435733-53.245562 86.308572z m-187.879619-347.504153a5980.357486 5980.357486 0 0 1-33.340952-56.832 463.479467 463.479467 0 0 1 109.168152 63.434362 2861.026743 2861.026743 0 0 0-75.8272-6.602362z m-42.315581 24.227353c-22.61821 43.490743-48.715581 91.599238-79.386819 146.351542a6160.978895 6160.978895 0 0 0-174.014171 0c-30.663924-54.735238-56.758857-102.846171-79.386819-146.351542 21.430857-36.093562 41.130667-70.056229 59.860114-103.192381a462.848 462.848 0 0 1 106.522819-12.380648c36.6592 0 72.328533 4.3008 106.549638 12.385524 18.724571 33.131276 38.424381 67.091505 59.855238 103.187505zM405.465015 962.850133c-18.729448-33.133714-38.429257-67.096381-59.860114-103.192381 22.615771-43.483429 48.70339-91.577295 79.362438-146.307657 57.824305 0.8192 116.243505 0.8192 174.062933 0 30.671238 54.749867 56.756419 102.841295 79.362438 146.307657-21.416229 36.071619-41.116038 70.031848-59.857676 103.187505a462.828495 462.828495 0 0 1-106.549638 12.385524 462.840686 462.840686 0 0 1-106.520381-12.380648z" fill="" p-id="4926"></path></svg>